<svg width="12" height="16" viewBox="0 0 12 16" fill="none" xmlns="http://www.w3.org/2000/svg">
<path d="M6.88657 13.431L6.8865 13.431L6.87741 13.4416L6 14.4642L5.12914 13.4492C4.47835 12.6589 3.42664 11.3538 2.53888 9.93353C1.6181 8.46047 1 7.05659 1 6.03974V6.03912V6.0385V6.03788V6.03727V6.03666V6.03605V6.03545V6.03485V6.03425V6.03365V6.03305V6.03246V6.03187V6.03128V6.03069V6.03011V6.02953V6.02895V6.02837V6.0278V6.02722V6.02665V6.02609V6.02552V6.02496V6.0244V6.02384V6.02328V6.02273V6.02218V6.02163V6.02108V6.02054V6.02V6.01946V6.01892V6.01838V6.01785V6.01732V6.01679V6.01626V6.01574V6.01522V6.0147V6.01418V6.01366V6.01315V6.01264V6.01213V6.01163V6.01112V6.01062V6.01012V6.00962V6.00912V6.00863V6.00814V6.00765V6.00716V6.00668V6.0062V6.00571V6.00524V6.00476V6.00429V6.00381V6.00334V6.00288V6.00241V6.00195V6.00148V6.00102V6.00057V6.00011V5.99966V5.99921V5.99876V5.99831V5.99787V5.99742V5.99698V5.99654V5.99611V5.99567V5.99524V5.99481V5.99438V5.99395V5.99353V5.9931V5.99268V5.99226V5.99185V5.99143V5.99102V5.99061V5.9902V5.98979V5.98939V5.98899V5.98858V5.98819V5.98779V5.98739V5.987V5.98661V5.98622V5.98583V5.98545V5.98506V5.98468V5.9843V5.98392V5.98355V5.98317V5.9828V5.98243V5.98206V5.98169V5.98133V5.98097V5.98061V5.98025V5.97989V5.97953V5.97918V5.97883V5.97848V5.97813V5.97778V5.97744V5.97709V5.97675V5.97641V5.97608V5.97574V5.97541V5.97507V5.97474V5.97442V5.97409V5.97376V5.97344V5.97312V5.9728V5.97248V5.97216V5.97185V5.97154V5.97123V5.97092V5.97061V5.9703V5.97V5.9697V5.96939V5.96909V5.9688V5.9685V5.96821V5.96791V5.96762V5.96733V5.96705V5.96676V5.96648V5.96619V5.96591V5.96563V5.96535V5.96508V5.9648V5.96453V5.96426V5.96399V5.96372V5.96346V5.96319V5.96293V5.96267V5.9624V5.96215V5.96189V5.96163V5.96138V5.96113V5.96088V5.96063V5.96038V5.96013V5.95989V5.95964V5.9594V5.95916V5.95892V5.95869V5.95845V5.95822V5.95798V5.95775V5.95752V5.95729V5.95707V5.95684V5.95662V5.9564V5.95617V5.95595V5.95574V5.95552V5.9553V5.95509V5.95488V5.95467V5.95446V5.95425V5.95404V5.95384V5.95363V5.95343V5.95323V5.95303V5.95283V5.95263V5.95244V5.95224V5.95205V5.95186V5.95167V5.95148V5.95129V5.95111V5.95092V5.95074V5.95055V5.95037V5.95019V5.95002V5.94984V5.94966V5.94949V5.94931V5.94914V5.94897V5.9488V5.94863V5.94847V5.9483V5.94814V5.94797V5.94781V5.94765V5.94749V5.94733V5.94718V5.94702V5.94687V5.94671V5.94656V5.94641V5.94626V5.94611V5.94596V5.94582V5.94567V5.94553V5.94538V5.94524V5.9451V5.94496V5.94483V5.94469V5.94455V5.94442V5.94428V5.94415V5.94402V5.94389V5.94376V5.94363V5.94351V5.94338V5.94326V5.94313V5.94301V5.94289V5.94277V5.94265V5.94253V5.94241V5.9423V5.94218V5.94207V5.94195V5.94184V5.94173V5.94162V5.94151V5.9414V5.9413V5.94119V5.94109V5.94098V5.94088V5.94078V5.94068V5.94058V5.94048V5.94038V5.94028V5.94019V5.94009V5.94V5.9399V5.93981V5.93972V5.93963V5.93954V5.93945V5.93936V5.93928V5.93919V5.93911V5.93902V5.93894V5.93886V5.93877V5.93869V5.93861V5.93853V5.93846V5.93838V5.9383V5.93823V5.93815V5.93808V5.93801V5.93793V5.93786V5.93779V5.93772V5.93765V5.93759V5.93752V5.93745V5.93739V5.93732V5.93726V5.93719V5.93713V5.93707V5.93701V5.93695V5.93689V5.93683V5.93677V5.93671V5.93666V5.9366V5.93655V5.93649V5.93644V5.93639V5.93633V5.93628V5.93623V5.93618V5.93613V5.93608V5.93604V5.93599V5.93594V5.93589V5.93585V5.9358V5.93576V5.93572V5.93567V5.93563V5.93559V5.93555V5.93551V5.93547V5.93543V5.93539V5.93535V5.93532V5.93528V5.93524V5.93521V5.93517V5.93514V5.93511V5.93507V5.93504V5.93501V5.93498V5.93494V5.93491V5.93488V5.93485V5.93483V5.9348V5.93477V5.93474V5.93472V5.93469V5.93466V5.93464V5.93461V5.93459V5.93456V5.93454V5.93452V5.9345V5.93447V5.93445V5.93443V5.93441V5.93439V5.93437V5.93435V5.93433V5.93431V5.93429V5.93428V5.93426V5.93424V5.93423V5.93421V5.93419V5.93418V5.93416V5.93415V5.93414V5.93412V5.93411V5.93409V5.93408V5.93407V5.93406V5.93405V5.93403V5.93402V5.93401V5.934V5.93399V5.93398V5.93397V5.93396V5.93395V5.93395V5.93394V5.93393V5.93392V5.93391V5.93391V5.9339V5.93389V5.93389V5.93388V5.93387V5.93387V5.93386V5.93386V5.93385V5.93385V5.93384V5.93384V5.93383V5.93383V5.93383V5.93382V5.93382V5.93381V5.9338V5.9338V5.93379V5.93379V5.93378V5.93378V5.93377C1 3.29955 3.17814 1 6 1C8.7132 1 11 3.29998 11 6.03974C11 7.05978 10.3788 8.49202 9.45902 9.97665C8.56927 11.4128 7.5155 12.7184 6.88657 13.431Z" stroke="#66A87E" stroke-width="2"/>
</svg>
