<svg width="16" height="16" viewBox="0 0 16 16" fill="none" xmlns="http://www.w3.org/2000/svg">
<path d="M1.44842 5.98595L1.4412 5.96529L1.43308 5.94496C1.14706 5.22866 1 4.42908 1 3.62105C1 3.27198 1.18425 2.83965 1.54836 2.47491L2.22086 1.80122L2.72524 1.29596L2.82767 1.19335C2.97786 1.10498 3.30345 1 3.61471 1C3.79188 1 4.0169 1.09559 4.17832 1.29771L4.20425 1.33018L4.23278 1.36039L4.95972 0.673684L4.23282 1.36042L4.23286 1.36047L4.23295 1.36057L4.23321 1.36084L4.234 1.36167L4.23664 1.36446L4.24595 1.37427L4.27909 1.409C4.30694 1.43808 4.34589 1.47852 4.39066 1.52431C4.47667 1.6123 4.59718 1.73345 4.7034 1.83105L5.36791 1.10793L4.7034 1.83105C4.8207 1.93885 4.96581 2.0595 5.07113 2.14538C5.11271 2.17929 5.1506 2.20981 5.18165 2.23466L5.53596 2.66057L5.56496 2.69544L5.597 2.72754L6.01732 3.14859L6.71059 2.45654L6.01732 3.14859L6.22405 3.35569C6.55217 3.80458 6.4598 4.40475 6.09968 4.69335L6.05645 4.72799L6.01732 4.7672L5.68107 5.10404L5.17669 5.6093L4.71158 6.07522L4.95571 6.68662C5.17881 7.24534 5.50487 7.67881 5.88246 8.06557C6.6923 9.13323 7.67485 10.0279 8.82424 10.7471C8.99514 10.8814 9.15869 10.9423 9.22054 10.9654C9.22549 10.9672 9.22979 10.9688 9.23339 10.9702L9.23342 10.9702C9.27462 10.986 9.28681 10.991 9.30348 10.9994L9.94899 11.3227L10.459 10.8117L11.3837 9.88544L11.5068 9.76215C11.9534 9.43239 12.4989 9.51889 12.7862 9.84266L12.8057 9.86464L12.8264 9.88543L14.6758 11.7381L14.7985 11.8609C15.1266 12.3098 15.0342 12.91 14.6741 13.1986L14.6309 13.2333L14.5918 13.2725L14.3396 13.5251C14.277 13.5878 14.2119 13.6458 14.1253 13.7225C14.1178 13.7292 14.1099 13.7362 14.1017 13.7434C13.9706 13.8592 13.7651 14.0407 13.5905 14.2818C13.1011 14.8164 12.6194 15 12.1051 15H11.8088C10.8774 14.9226 9.92338 14.6309 9.02227 14.1796L9.01505 14.176L9.00778 14.1725C7.05376 13.2329 5.31444 11.8143 3.87869 10.1388C2.83374 8.84895 1.98482 7.52123 1.44842 5.98595Z" stroke="#66A87E" stroke-width="2"/>
</svg>
